<svg xmlns="http://www.w3.org/2000/svg">
  <symbol id="logOut" viewBox="0 0 512 512">
    <g>
      <path d="M510.371,226.513c-1.088-2.603-2.645-4.971-4.629-6.955l-63.979-63.979c-8.341-8.32-21.824-8.32-30.165,0
				c-8.341,8.341-8.341,21.845,0,30.165l27.584,27.584H320.013c-11.797,0-21.333,9.557-21.333,21.333s9.536,21.333,21.333,21.333
				h119.168l-27.584,27.584c-8.341,8.341-8.341,21.845,0,30.165c4.16,4.181,9.621,6.251,15.083,6.251s10.923-2.069,15.083-6.251
				l63.979-63.979c1.984-1.963,3.541-4.331,4.629-6.955C512.525,237.606,512.525,231.718,510.371,226.513z"/>
			<path d="M362.68,298.667c-11.797,0-21.333,9.557-21.333,21.333v106.667h-85.333V85.333c0-9.408-6.187-17.728-15.211-20.437
				l-74.091-22.229h174.635v106.667c0,11.776,9.536,21.333,21.333,21.333s21.333-9.557,21.333-21.333v-128
				C384.013,9.557,374.477,0,362.68,0H21.347c-0.768,0-1.451,0.32-2.197,0.405c-1.003,0.107-1.92,0.277-2.88,0.512
				c-2.24,0.576-4.267,1.451-6.165,2.645c-0.469,0.299-1.045,0.32-1.493,0.661C8.44,4.352,8.376,4.587,8.205,4.715
				C5.88,6.549,3.939,8.789,2.531,11.456c-0.299,0.576-0.363,1.195-0.597,1.792c-0.683,1.621-1.429,3.2-1.685,4.992
				c-0.107,0.64,0.085,1.237,0.064,1.856c-0.021,0.427-0.299,0.811-0.299,1.237V448c0,10.176,7.189,18.923,17.152,20.907
				l213.333,42.667c1.387,0.299,2.795,0.427,4.181,0.427c4.885,0,9.685-1.685,13.525-4.843c4.928-4.053,7.808-10.091,7.808-16.491
				v-21.333H362.68c11.797,0,21.333-9.557,21.333-21.333V320C384.013,308.224,374.477,298.667,362.68,298.667z"/>
    </g>
  </symbol>

  <symbol id="refresh" viewBox="0 0 438.542 438.542">
    <g>
      <path d="M427.408,19.697c-7.803-3.23-14.463-1.902-19.986,3.999l-37.116,36.834C349.94,41.305,326.672,26.412,300.5,15.848
		C274.328,5.285,247.251,0.003,219.271,0.003c-29.692,0-58.052,5.808-85.08,17.417c-27.03,11.61-50.347,27.215-69.951,46.82
		c-19.605,19.607-35.214,42.921-46.824,69.949C5.807,161.219,0,189.575,0,219.271c0,29.687,5.807,58.05,17.417,85.079
		c11.613,27.031,27.218,50.347,46.824,69.952c19.604,19.599,42.921,35.207,69.951,46.818c27.028,11.611,55.388,17.419,85.08,17.419
		c32.736,0,63.865-6.899,93.363-20.7c29.5-13.795,54.625-33.26,75.377-58.386c1.52-1.903,2.234-4.045,2.136-6.424
		c-0.089-2.378-0.999-4.329-2.711-5.852l-39.108-39.399c-2.101-1.711-4.473-2.566-7.139-2.566c-3.045,0.38-5.232,1.526-6.566,3.429
		c-13.895,18.086-30.93,32.072-51.107,41.977c-20.173,9.894-41.586,14.839-64.237,14.839c-19.792,0-38.684-3.854-56.671-11.564
		c-17.989-7.706-33.551-18.127-46.682-31.261c-13.13-13.135-23.551-28.691-31.261-46.682c-7.708-17.987-11.563-36.874-11.563-56.671
		c0-19.795,3.858-38.691,11.563-56.674c7.707-17.985,18.127-33.547,31.261-46.678c13.135-13.134,28.693-23.555,46.682-31.265
		c17.983-7.707,36.879-11.563,56.671-11.563c38.259,0,71.475,13.039,99.646,39.116l-39.409,39.394
		c-5.903,5.711-7.231,12.279-4.001,19.701c3.241,7.614,8.856,11.42,16.854,11.42h127.906c4.949,0,9.23-1.807,12.848-5.424
		c3.613-3.616,5.42-7.898,5.42-12.847V36.55C438.542,28.558,434.84,22.943,427.408,19.697z"/>
    </g>
  </symbol>
  
</svg>

